<svg id="Componente_6_1" data-name="Componente 6 – 1" xmlns="http://www.w3.org/2000/svg" xmlns:xlink="http://www.w3.org/1999/xlink" width="253.75" height="63.251" viewBox="0 0 253.75 63.251">
  <defs>
    <clipPath id="clip-path">
      <rect id="Rectángulo_2" data-name="Rectángulo 2" width="253.75" height="63.251" transform="translate(0 -1)" fill="#e8e5e2"/>
    </clipPath>
  </defs>
  <g id="Grupo_1" data-name="Grupo 1" transform="translate(0 1)" clip-path="url(#clip-path)">
    <path id="Trazado_20" data-name="Trazado 20" d="M131.35,27.237c0-6.84,0-8.068-.086-9.471-.086-1.491-.431-2.192-1.854-2.5a7.987,7.987,0,0,0-1.466-.132c-.172,0-.345-.088-.345-.263,0-.263.216-.351.69-.351,1.94,0,4.527.132,4.872.132.948,0,3.449-.132,5.433-.132,5.389,0,7.33,1.842,8.02,2.5a7.682,7.682,0,0,1,2.156,5.218c0,6.227-2.705,9.25-8.828,9.25a6.265,6.265,0,0,1-.905-.044c-.216,0-.475-.088-.475-.307,0-.351.259-.395,1.165-.395,4.182,0,5.68-1.928,5.68-5.962a9.4,9.4,0,0,0-2.415-6.753,7.408,7.408,0,0,0-5.907-2.192,5.22,5.22,0,0,0-1.854.263c-.259.088-.345.395-.345.833V34.955c0,4.209,0,7.673.216,9.515.129,1.272.387,2.236,1.681,2.412a18.5,18.5,0,0,0,1.94.175c.259,0,.345.132.345.263,0,.219-.215.351-.69.351-2.371,0-5.088-.132-5.3-.132-.13,0-2.846.132-4.14.132-.474,0-.69-.088-.69-.351,0-.132.086-.263.345-.263a6.551,6.551,0,0,0,1.293-.175c.863-.175,1.078-1.14,1.251-2.412.216-1.842.216-5.305.216-9.515Z" transform="translate(-52.012 -0.298)" fill="#e8e5e2"/>
    <path id="Trazado_21" data-name="Trazado 21" d="M206.42,44.174c0,4.774.128,6.853.7,7.437.511.52,1.341.747,3.832.747,1.693,0,5.469-.033,6.235-.974a4.553,4.553,0,0,0,.83-1.949c.032-.259.1-.422.287-.422.16,0,.192.13.192.487a21.093,21.093,0,0,1-.479,3.248c-.223.747-.319.877-2.012.877-2.3,0-6.331-.065-7.672-.1-1.341-.065-2.332-.1-3.258-.1-.127,0-.671.033-1.309.033-.639.033-1.341.065-1.82.065-.351,0-.511-.065-.511-.26,0-.1.064-.195.255-.195a4.88,4.88,0,0,0,.958-.13c.639-.13.8-.845.926-1.787.16-1.364.16-3.93.16-7.048V38.393c0-5.067,0-5.976-.064-7.015-.064-1.1-.319-1.624-1.373-1.851a5.857,5.857,0,0,0-1.086-.1c-.127,0-.255-.065-.255-.195,0-.194.159-.259.511-.259,1.437,0,3.449.1,3.609.1s2.491-.1,3.449-.1c.351,0,.511.065.511.259,0,.13-.128.195-.255.195a7.358,7.358,0,0,0-1.054.1c-.926.162-1.181.714-1.245,1.851-.064,1.039-.064,1.948-.064,7.015Z" transform="translate(-81.915 -6.19)" fill="#e8e5e2"/>
    <path id="Trazado_22" data-name="Trazado 22" d="M239.7,28.812c6.843-2.192,13.359.562,15.668,7.768,2.22,6.928-.751,14.189-8.08,16.538-8.333,2.67-13.911-2.806-15.7-8.373-1.605-5.01-.287-13.243,8.107-15.933m8.033,22.868c2.737-.877,7.878-4.3,4.994-13.3-2.378-7.423-8.1-9.99-12.9-8.45-5.079,1.627-7.79,6.248-5.619,13.021,2.309,7.206,8.053,10.481,13.528,8.727" transform="translate(-94.162 -5.824)" fill="#e8e5e2"/>
    <path id="Trazado_23" data-name="Trazado 23" d="M394.7,28.812c6.843-2.192,13.359.562,15.668,7.768,2.22,6.928-.751,14.189-8.08,16.538-8.333,2.67-13.911-2.806-15.7-8.373-1.605-5.01-.287-13.243,8.107-15.933m8.033,22.868c2.737-.877,7.878-4.3,4.994-13.3-2.378-7.423-8.1-9.99-12.9-8.45-5.079,1.627-7.79,6.248-5.619,13.021,2.309,7.206,8.053,10.481,13.528,8.727" transform="translate(-157.343 -5.824)" fill="#e8e5e2"/>
    <path id="Trazado_24" data-name="Trazado 24" d="M301.872,49.058c.128,1.169.352,2.988,1.724,3.443a6.824,6.824,0,0,0,2.076.292c.16,0,.256.032.256.162,0,.195-.288.292-.671.292-.7,0-4.152-.032-5.333-.13-.735-.065-.894-.162-.894-.325,0-.13.065-.195.224-.227s.191-.585.127-1.169L297.849,34.54h-.1l-7.824,16.888c-.671,1.429-.767,1.721-1.054,1.721-.223,0-.383-.325-.99-1.494-.831-1.591-3.577-7.21-3.736-7.534-.288-.585-3.864-8.379-4.216-9.256h-.127l-1.277,15.069c-.032.52-.032,1.1-.032,1.656a1.035,1.035,0,0,0,.83,1.007,5.81,5.81,0,0,0,1.214.162c.128,0,.255.065.255.162,0,.227-.191.293-.575.293-1.182,0-2.714-.1-2.97-.1-.287,0-1.82.1-2.682.1-.319,0-.543-.065-.543-.293,0-.1.16-.162.319-.162a4.028,4.028,0,0,0,.958-.1c1.054-.195,1.149-1.461,1.277-2.7l2.3-21.175c.031-.357.159-.585.351-.585s.319.13.479.488l9.772,20.428,9.389-20.4c.127-.293.255-.52.479-.52s.319.26.384.877Z" transform="translate(-111.698 -5.877)" fill="#e8e5e2"/>
    <path id="Trazado_25" data-name="Trazado 25" d="M330.993,44.109c0,3.118,0,5.684.16,7.048.1.942.287,1.656,1.245,1.787a13.8,13.8,0,0,0,1.437.13c.192,0,.255.1.255.195,0,.162-.159.259-.511.259-1.757,0-3.768-.1-3.928-.1s-2.172.1-3.13.1c-.351,0-.511-.065-.511-.259,0-.1.063-.195.255-.195a4.886,4.886,0,0,0,.958-.13c.639-.13.8-.845.926-1.787.16-1.364.16-3.93.16-7.048V38.393c0-5.067,0-5.976-.064-7.015-.064-1.1-.383-1.656-1.086-1.819a4.139,4.139,0,0,0-.99-.13c-.127,0-.255-.065-.255-.195,0-.194.159-.259.511-.259,1.054,0,3.066.1,3.226.1s2.171-.1,3.13-.1c.351,0,.511.065.511.259,0,.13-.128.195-.256.195a4.656,4.656,0,0,0-.8.1c-.862.162-1.118.714-1.182,1.851-.064,1.039-.064,1.948-.064,7.015Z" transform="translate(-132.85 -6.19)" fill="#e8e5e2"/>
    <path id="Trazado_26" data-name="Trazado 26" d="M345.188,48.8c.063,2.663.383,3.507,1.246,3.767a6.854,6.854,0,0,0,1.6.195c.159,0,.255.065.255.2,0,.194-.192.259-.575.259-1.82,0-3.1-.1-3.385-.1s-1.628.1-3.065.1c-.319,0-.511-.033-.511-.259,0-.13.1-.2.256-.2a4.487,4.487,0,0,0,1.309-.195c.8-.227.958-1.169.958-4.125l.032-18.609c0-1.267.1-1.624.351-1.624s.8.714,1.118,1.039c.479.552,5.237,5.781,10.155,11.14,3.161,3.443,6.642,7.4,7.664,8.476l-.351-16.5c-.032-2.111-.256-2.825-1.245-3.085a8.389,8.389,0,0,0-1.565-.162c-.223,0-.255-.1-.255-.227,0-.195.255-.227.639-.227,1.437,0,2.97.1,3.321.1s1.405-.1,2.714-.1c.351,0,.575.033.575.227,0,.13-.128.227-.352.227a2.773,2.773,0,0,0-.766.1c-1.054.227-1.182.942-1.182,2.891l-.064,19.031c0,2.143-.064,2.306-.287,2.306-.256,0-.639-.357-2.332-2.079-.351-.325-4.949-5.1-8.335-8.8-3.7-4.06-7.313-8.152-8.335-9.321Z" transform="translate(-138.896 -5.877)" fill="#e8e5e2"/>
    <path id="Trazado_27" data-name="Trazado 27" d="M182.441,52.761a4.048,4.048,0,0,1-1.278-.2c-.671-.194-1.6-.714-2.746-3.6-1.948-4.937-6.962-18.35-7.441-19.584-.383-1.006-.511-1.169-.7-1.169s-.319.195-.7,1.267l-7.249,20.168c-.575,1.624-1.214,2.858-2.683,3.053-.255.033-.7.065-.926.065-.159,0-.287.065-.287.195,0,.194.191.259.607.259,1.5,0,3.257-.1,3.608-.1s1.724.1,2.491.1c.287,0,.479-.065.479-.259,0-.13-.1-.195-.319-.195h-.319c-.543,0-1.213-.293-1.213-.942a6.949,6.949,0,0,1,.447-2.176l1.665-5,.732-2.212a.281.281,0,0,1,.267-.193h5.978a.281.281,0,0,1,.265.187l.909,2.555,2.541,6.837c.192.52,0,.812-.191.877-.128.033-.223.1-.223.227,0,.2.351.2.958.227,2.2.065,4.534.065,5.013.065.352,0,.639-.065.639-.259,0-.163-.128-.195-.319-.195M167.3,41a.162.162,0,0,1-.154-.213l.443-1.339,1.916-5.978q.24-.731.479,0l1.986,5.738.083.241.475,1.336a.161.161,0,0,1-.152.216Z" transform="translate(-64.578 -5.877)" fill="#e8e5e2"/>
    <path id="Trazado_28" data-name="Trazado 28" d="M9.565,56.079a.572.572,0,0,1-.476.208.583.583,0,0,1-.371-.247,1.177,1.177,0,0,0-.2.791,1.239,1.239,0,0,0,.421.742,1.359,1.359,0,0,0,.9.452.8.8,0,0,0,.118-.007A1.2,1.2,0,0,0,10.6,57.6a1.991,1.991,0,0,0,.421-.643,2.177,2.177,0,0,0,.149-.94,3.2,3.2,0,0,0-.3-1.163c-.333-.806-.832-1.608-.94-1.559-.07.032.11.383.148,1.064a2.307,2.307,0,0,1-.148,1.188,2.128,2.128,0,0,1-.366.534" transform="translate(-3.469 -21.529)" fill="#e8e5e2"/>
    <path id="Trazado_29" data-name="Trazado 29" d="M26.778,53.571a5.348,5.348,0,0,0,2.1.248,10.707,10.707,0,0,0,2.647-.866,12.583,12.583,0,0,0,1.881-.891A10.719,10.719,0,0,0,34.5,51.32a15.29,15.29,0,0,0,2.647.025,10.675,10.675,0,0,0,3.687-.792,5.976,5.976,0,0,0,2.721-1.929,5.844,5.844,0,0,0,.94-2.227,8.139,8.139,0,0,0,.124-3.167A10.317,10.317,0,0,1,44,45.308a7.873,7.873,0,0,1-1.534,2.548,7.306,7.306,0,0,1-3.81,2.029,4.8,4.8,0,0,1-3.018-.075,1.315,1.315,0,0,1-.693-.668,1.25,1.25,0,0,1,.025-.891,8.426,8.426,0,0,1-1.46,1.955,9.808,9.808,0,0,1-2.277,1.633,15.562,15.562,0,0,1-2.548,1.139c-.764.278-1.421.468-1.905.594" transform="translate(-10.915 -17.427)" fill="#e8e5e2"/>
    <path id="Trazado_30" data-name="Trazado 30" d="M36.945,0A30.867,30.867,0,0,0,18.3,6.24c-.1-.078-.194-.16-.289-.252A2.441,2.441,0,0,1,17.248,4.9a2.16,2.16,0,0,1,.075-1.361,2.539,2.539,0,0,1,1.064-1.286,1.321,1.321,0,0,0-.5-.05,1.58,1.58,0,0,0-.816.371,6.168,6.168,0,0,0-1.014.94,7.336,7.336,0,0,0-1.015,1.633,5.718,5.718,0,0,0-.618,2.227,5.213,5.213,0,0,0,.124,1.386,5.616,5.616,0,0,0,.173.637,30.967,30.967,0,0,0-8.44,16.856L6.09,26.4c-.193.149-.79.611-1.559,1.287a16.352,16.352,0,0,0-1.237,1.163,5.5,5.5,0,0,0-.965,1.262A4.4,4.4,0,0,0,1.983,31a1.248,1.248,0,0,0-.625-.111,1.319,1.319,0,0,0-.8.39,1.487,1.487,0,0,0-.427.742,1.655,1.655,0,0,0,.056.835,5.349,5.349,0,0,0,.983,1.6,4.222,4.222,0,0,1,.575.89,4,4,0,0,1,.241.928,2.792,2.792,0,0,1,.075,1.021,1.93,1.93,0,0,1-.408.873,8.184,8.184,0,0,0,1.373,1.447,6.814,6.814,0,0,0,2.189,1.28,4.924,4.924,0,0,0,2.136.344c-.173.1-.344.2-.511.307-.335.217-.671.419-.983.65s-.628.441-.919.678-.586.457-.854.694-.538.48-.79.726A13.13,13.13,0,0,0,1.96,45.8c-.193.258-.373.515-.532.774s-.305.505-.441.755a7.821,7.821,0,0,0-.921,2.8,6.977,6.977,0,0,0-.007,1.874,4.659,4.659,0,0,0,.08.482l.036.163S.192,52.422.235,52a10.783,10.783,0,0,1,.36-1.761,9.9,9.9,0,0,1,1.162-2.462c.143-.223.3-.445.467-.681s.335-.457.523-.683a12.165,12.165,0,0,1,1.3-1.33c.243-.215.5-.434.765-.639s.553-.417.844-.62.588-.4.9-.6.631-.379.955-.568c.181-.1.373-.2.559-.293a22.351,22.351,0,0,1,2.168-.981c.524-.2,1.057-.4,1.607-.577a22.1,22.1,0,0,1,2.4-.632,23.732,23.732,0,0,1,2.513-.339,33.312,33.312,0,0,1,5.244-.012c.882.057,1.788.126,2.663.209s1.762.206,2.657.3c1.777.185,3.531.312,5.23.392.855.036,1.675.081,2.516.067s1.6-.045,2.378-.046,1.518.006,2.265-.008a11.532,11.532,0,0,0,2.166-.243A12.38,12.38,0,0,0,45.4,39.184a14.477,14.477,0,0,0,2.359-1.646,14.823,14.823,0,0,0,1.325-1.277c.287-.312.432-.485.432-.485s-.162.158-.478.437-.792.675-1.426,1.134a14.178,14.178,0,0,1-2.423,1.416,13.42,13.42,0,0,1-3.449,1.013,10.73,10.73,0,0,1-2.031.111c-.711-.027-1.47-.082-2.245-.12s-1.594-.066-2.386-.089c-.786-.041-1.624-.1-2.455-.161q-.683-.053-1.377-.119l.186-.071c.5-.183,1.116-.394,1.826-.583.181-.047.355-.09.553-.134l.6-.11c.416-.074.852-.158,1.305-.253l.681-.134.719-.136L38.63,37.7c.14-.027.3-.063.455-.109l.1-.028.11-.036.211-.07c.281-.1.561-.21.838-.338a10.082,10.082,0,0,0,1.615-.93c.258-.184.509-.382.753-.591l.356-.315c.12-.111.239-.226.355-.343A10.193,10.193,0,0,0,44.661,33.4c.186-.276.355-.566.52-.859.076-.153.152-.294.225-.46l.11-.242.09-.216A11.987,11.987,0,0,0,46.23,29.7a9.7,9.7,0,0,0,.227-2.028,7.65,7.65,0,0,0-.055-1.026l-.031-.264-.039-.226-.041-.248-.052-.246a9.971,9.971,0,0,0-1.564-3.508c-.335-.5-.681-.962-1.014-1.409-.335-.465-.686-.9-1.043-1.311a20.37,20.37,0,0,0-2.172-2.126c-.714-.605-1.379-1.124-1.977-1.588s-1.136-.839-1.583-1.142c-.9-.605-1.427-.918-1.427-.918l.333.3c.213.2.534.475.924.847s.855.829,1.378,1.36,1.107,1.155,1.7,1.833a19.082,19.082,0,0,1,1.779,2.261c.28.421.548.862.8,1.326.269.485.536.97.772,1.454a10.664,10.664,0,0,1,.588,1.458A8.588,8.588,0,0,1,44.041,26l.021.194c-.007-.059,0-.008,0-.018v.014l0,.028,0,.057.008.114.015.227v.179c0,.115,0,.245,0,.379s-.007.262-.012.393a8.516,8.516,0,0,1-.238,1.57,9.871,9.871,0,0,1-.5,1.54l-.086.208-.077.168c-.046.109-.114.235-.171.352-.119.239-.242.475-.38.7a10.824,10.824,0,0,1-.909,1.283c-.081.1-.163.2-.249.29l-.272.291c-.18.187-.365.363-.557.528a8.488,8.488,0,0,1-1.194.9c-.207.129-.419.246-.633.352l-.162.077-.074.036-.089.04a2.787,2.787,0,0,1-.29.117l-1.464.486c-.239.079-.47.165-.7.246l-.355.127L35.348,37c-.434.159-.849.318-1.241.475l-.588.233c-.18.079-.375.168-.546.251a12.9,12.9,0,0,0-1.733.99c-.215.145-.4.277-.567.4-1.053-.1-2.12-.227-3.2-.373-.867-.116-1.746-.264-2.656-.381s-1.8-.21-2.709-.3a34.382,34.382,0,0,0-5.494-.033,19.6,19.6,0,0,0-2.7.4,23.746,23.746,0,0,0-2.558.723c-.39.132-.772.278-1.146.433a6.077,6.077,0,0,0,1.24-1.98,3.071,3.071,0,0,1,.39-.835,2.248,2.248,0,0,1,.39-.464,2.011,2.011,0,0,1,1.095-.464,1.189,1.189,0,0,0-.761-.185,1.349,1.349,0,0,0-.649.3,2.452,2.452,0,0,0-.576.594,5.984,5.984,0,0,0-.445.761c-.225.4-.436.724-.538.872a5.446,5.446,0,0,1-.826.963c-.089.081-.183.163-.287.243a3.6,3.6,0,0,1-1.355.724,3.341,3.341,0,0,1-1.132.092,3.713,3.713,0,0,1-1.485-.5,13.587,13.587,0,0,1-2.542-1.8,2.71,2.71,0,0,0,.316-1.243,3.047,3.047,0,0,0-.223-1.076,5.513,5.513,0,0,0-.946-1.781c-.245-.3-.409-.651-.631-.965a.552.552,0,0,1-.13-.371.7.7,0,0,1,.3-.427,1,1,0,0,1,.26-.148.824.824,0,0,0,.074.649.868.868,0,0,0,.408.334,1.43,1.43,0,0,0,.947.074,3.153,3.153,0,0,1-.2-1.317,4.022,4.022,0,0,1,1.114-2.264,18.549,18.549,0,0,1,2.121-2.214c.244-.229.517-.483.829-.773,1.54-1.431,1.474-1.357,1.614-1.5.157-.165.3-.324.439-.482a24.237,24.237,0,0,0,2.066-2.9,6.286,6.286,0,0,0,1.243-2.653,4.731,4.731,0,0,0,.018-1.188,12.291,12.291,0,0,0,1.948-1.169,9.251,9.251,0,0,0,1.986-1.838,7.574,7.574,0,0,0,1.447-3.4,6.337,6.337,0,0,1-.992-.742c-.028-.026-.056-.048-.084-.075a4.078,4.078,0,0,1-.706-.8,3.417,3.417,0,0,1-.473-1.211c-.049-.245-.076-.48-.1-.7a5.042,5.042,0,0,1-.037-.983,4.474,4.474,0,0,1,1-2.413,1.43,1.43,0,0,0,.037.835,1.455,1.455,0,0,0,.315.5,5.931,5.931,0,0,0,.988.833,7.5,7.5,0,0,0,1.035.6,9.7,9.7,0,0,0,1.435.509,10.088,10.088,0,0,0,1.113.233,4.334,4.334,0,0,0-.544-.47c-.041-.03-.081-.056-.12-.082a28.565,28.565,0,0,1,8.2-3.955c-.092.11-.178.216-.253.314a8.988,8.988,0,0,0-.661.993,20.3,20.3,0,0,0-1.987.8,17.3,17.3,0,0,0-3.268,1.982A14.848,14.848,0,0,0,20.3,9.865l-.437.537c-.135.179-.258.359-.377.528-.245.339-.411.656-.6.949a12.7,12.7,0,0,0-.692,1.41c-.139.334-.2.516-.2.516l.29-.469c.191-.3.489-.737.893-1.262.211-.243.442-.556.715-.836l.419-.447.477-.461a17.1,17.1,0,0,1,2.423-1.849,19.738,19.738,0,0,1,3.207-1.6c.226-.088.46-.169.694-.249a11.885,11.885,0,0,0-.384,1.621,5.647,5.647,0,0,0-.037,1.967c.134.849.482,1.736.668,1.707.165-.026.063-.755.26-2a25.381,25.381,0,0,1,1.775-5.4,1.919,1.919,0,0,0,.046.665,5.2,5.2,0,0,0,.322,1.6A8.2,8.2,0,0,0,31.1,8.7a8.119,8.119,0,0,0,1.967,1.893,5.77,5.77,0,0,0,.891.445c.223.9.149,1.868.371,2.771a6.5,6.5,0,0,0,.482-1.992q.056-.613.111-1.225c-.138-.086-.332-.211-.557-.371a11.263,11.263,0,0,1-2.449-2.413,7.168,7.168,0,0,1-1.076-1.744c-.047-.116-.088-.23-.126-.344.2-.034.4-.065.576-.087.338-.049.694-.084,1.047-.118.709-.062,1.429-.088,2.156-.1a25.786,25.786,0,0,1,4.4.361c.735.113,1.459.254,2.209.409s1.475.31,2.2.481a42.257,42.257,0,0,1,4.164,1.17c.661.227,1.287.489,1.922.749s1.236.531,1.827.8c1.182.551,2.308,1.084,3.359,1.56s2.026.9,2.91,1.228c.526.2,1.012.37,1.46.517q.438.525.851,1.07a16.257,16.257,0,0,1-2.008-.316,11.511,11.511,0,0,1-1.781-.52c-.95-.368-1.562-.761-1.6-.7a4.3,4.3,0,0,0,1.224.928,11.2,11.2,0,0,0,2.079.891,10.458,10.458,0,0,1,2.932,1.93,17.519,17.519,0,0,1,1.422,1.291,28.616,28.616,0,0,1,.735,26.1l-.242.123c-.606.317-1.352.674-2.194,1.083s-1.8.844-2.855,1.283l-.815.336c-.271.107-.549.215-.839.321-.579.207-1.181.413-1.8.611s-1.271.371-1.935.544-1.348.316-2.057.451a27.952,27.952,0,0,1-4.378.469c-1.511.04-3.091,0-4.637-.084-1.55-.1-3.1-.265-4.612-.48s-3-.5-4.43-.8-2.8-.63-4.095-.974-2.518-.675-3.636-1.018-2.138-.678-3.046-.965l-1.273-.4-1.086-.331c-.66-.194-1.18-.345-1.538-.441s-.552-.14-.552-.14.167.107.489.293.8.451,1.413.762,1.379.662,2.269,1.026,1.91.733,3.031,1.112,2.341.778,3.65,1.136,2.695.708,4.148,1.024a72.478,72.478,0,0,0,9.182,1.387c.793.073,1.579.124,2.362.174s1.57.105,2.356.132a27.983,27.983,0,0,0,4.658-.188c.745-.093,1.483-.219,2.2-.377s1.4-.337,2.068-.543,1.3-.428,1.909-.674c.3-.12.6-.248.9-.374l.415-.186c.152-.068.28-.136.419-.2a19.923,19.923,0,0,0,2.835-1.688c.284-.2.541-.4.787-.6a28.638,28.638,0,0,1-49.069,1.259c.28-.042.562-.081.843-.114.354-.05.681-.069,1.017-.1s.684-.041,1.027-.04a18.268,18.268,0,0,1,2.045.124c.672.076,1.324.206,1.954.326s1.231.28,1.8.416l.832.212.781.21c.493.14.961.258,1.374.367s.784.2,1.09.269.556.121.727.154l.267.044s-.3-.193-.841-.5a22.555,22.555,0,0,0-2.3-1.208c-.49-.214-1.029-.469-1.61-.694s-1.205-.457-1.865-.665a18.085,18.085,0,0,0-2.076-.52c-.36-.072-.727-.111-1.1-.159-.37-.031-.742-.06-1.117-.071s-.746,0-1.124,0-.78.028-1.114.067l-.261.027-.283.032-.524.066c-.181.023-.363.049-.544.081s-.346.065-.519.1a7.861,7.861,0,0,0-1.787.62c-.086.042-.174.082-.258.127a7.131,7.131,0,0,0-.878.566c-.151.11-.211.169-.364.29-.114.109-.23.21-.334.319a5.594,5.594,0,0,0-.979,1.294,5.388,5.388,0,0,0-.466,1.142,4.648,4.648,0,0,0-.139.781c-.006.185-.009.284-.009.284l.171-.2c.106-.13.264-.32.479-.543a8.667,8.667,0,0,1,.772-.775A10.9,10.9,0,0,1,8.566,47.9c.208-.142.422-.277.663-.419a6.832,6.832,0,0,1,.725-.358q.188-.076.385-.145a31.263,31.263,0,0,0,4.84,6.142c-.148.042-.3.085-.454.126a17.72,17.72,0,0,1-2.746.52,7.839,7.839,0,0,1-3.093-.025A4.469,4.469,0,0,1,6.535,52.4a4.3,4.3,0,0,1-1.014-2.449,4.982,4.982,0,0,1,.866-3.291,6.459,6.459,0,0,1,1.781-1.658,9.4,9.4,0,0,1,.82-.522c.418-.238.778-.4,1.035-.517a10.309,10.309,0,0,1,1.138-.447c.19-.06.395-.119.619-.172a9.678,9.678,0,0,1,1.188-.2,6.958,6.958,0,0,1,1.386-.075,5.036,5.036,0,0,1,.989.174,1.149,1.149,0,0,0-.753-.6,6.322,6.322,0,0,0-.756-.14,6.732,6.732,0,0,0-2,.074c-.315.053-.658.111-1.019.19a8.85,8.85,0,0,0-2.246.792,8.255,8.255,0,0,0-.768.453A7.143,7.143,0,0,0,4.853,47.5a7.189,7.189,0,0,0-.3,1.83A5.523,5.523,0,0,0,4.7,50.8a4.985,4.985,0,0,0,1.559,2.6,5.172,5.172,0,0,0,2.029,1.04,7.689,7.689,0,0,0,4.107.049c-.185.156-.457.381-.792.643a11.136,11.136,0,0,1-1.039.767,6.44,6.44,0,0,1-1.485.618,14.269,14.269,0,0,1-1.682.445,8.545,8.545,0,0,1-2.054-.174,6.4,6.4,0,0,1-1.608-.52,5.727,5.727,0,0,1-1.336-.89,5.247,5.247,0,0,1-1.113-1.46A4.535,4.535,0,0,0,1.735,55.1,4.878,4.878,0,0,0,2.9,56.486a5.469,5.469,0,0,0,1.262.767,7.6,7.6,0,0,0,2.993.618,10.7,10.7,0,0,0,5.073-1.336,12.829,12.829,0,0,0,3.6-2.794A31.021,31.021,0,1,0,36.945,0M11.236,18.952a4.223,4.223,0,0,1-.47,1.485A14.511,14.511,0,0,1,9.8,22.218l-.246.39a28.487,28.487,0,0,1,1.672-4.2,3.012,3.012,0,0,1,.009.546m4.648-7.33c.133.2.281.408.449.625a4.312,4.312,0,0,1-.322,1.088,5.207,5.207,0,0,1-.99,1.41,9.461,9.461,0,0,1-1.361,1.287,9.345,9.345,0,0,1-1.741,1.056,28.824,28.824,0,0,1,3.964-5.466m41.879-.064c-.819-.429-1.729-.95-2.723-1.514s-2.062-1.207-3.23-1.837a30.963,30.963,0,0,0-8.1-3.2c-.579-.145-1.161-.28-1.745-.411-.165-.037-.33-.075-.5-.111-.74-.163-1.516-.33-2.293-.455a27.593,27.593,0,0,0-4.7-.32,19.743,19.743,0,0,0-2.311.17c-.38.052-.754.1-1.134.175-.231.04-.434.08-.639.124-.025-.2-.046-.4-.066-.6-.015-.145-.027-.284-.037-.417a28.632,28.632,0,0,1,27.826,8.581l-.35-.18" transform="translate(0 0.194)" fill="#e8e5e2"/>
    <path id="Trazado_31" data-name="Trazado 31" d="M38.92,35.9a3,3,0,0,1-1.336.322,1.419,1.419,0,0,1-.767-.1.971.971,0,0,0-.272-.124.815.815,0,0,0-.52.074,2.366,2.366,0,0,0,1.139.792,2.74,2.74,0,0,0,1.657-.1,4.193,4.193,0,0,0,1.361-.693,9.7,9.7,0,0,0,.965-.915c.637-.646.48-.569.792-.841a1.51,1.51,0,0,0,.525-.749.815.815,0,0,0,.019-.488,1.05,1.05,0,0,0-.222-.371,2.905,2.905,0,0,1-.5.544,2.086,2.086,0,0,1-.668.421,2.063,2.063,0,0,1-1.015.074c-.349-.044-.387-.117-.791-.2a4.058,4.058,0,0,0-.99-.074,2.916,2.916,0,0,0-1.46.421,3.172,3.172,0,0,0-.891.915,4.906,4.906,0,0,0-.569,1.015,1.97,1.97,0,0,0,.643-.1,1.947,1.947,0,0,0,.421-.2c.041-.056.1-.133.174-.222a6.079,6.079,0,0,1,.421-.47,1.919,1.919,0,0,1,1.42-.649,5.125,5.125,0,0,1,.531.024,1.23,1.23,0,0,1,.666.287.391.391,0,0,1,.177.266.949.949,0,0,1-.1.419,1.557,1.557,0,0,1-.816.717" transform="translate(-14.422 -13.137)" fill="#e8e5e2"/>
    <path id="Trazado_32" data-name="Trazado 32" d="M32.208,31.443s3.3-3.526,7.126-3.34v-.52l-4.268-.371a30.22,30.22,0,0,0-2.858,4.231" transform="translate(-13.129 -10.898)" fill="#e8e5e2"/>
    <path id="Trazado_33" data-name="Trazado 33" d="M83.188,38.7c-.027.153-.063.306-.107.464a7.009,7.009,0,0,1-.335.934c-.064.149-.144.312-.21.443l-.128.24-.118.206a8.222,8.222,0,0,1-.55.828,10.709,10.709,0,0,1-1.35,1.457c-.264.23-.529.474-.785.685s-.5.42-.765.621-.516.406-.781.592-.522.376-.785.549A31.364,31.364,0,0,1,74.2,47.534c-.493.251-.978.476-1.434.671s-.915.351-1.345.494c-.861.279-1.627.489-2.266.636s-1.147.247-1.5.306l-.535.092.544.01c.355,0,.877,0,1.541-.057a19.5,19.5,0,0,0,2.386-.327c.457-.092.942-.2,1.456-.341s1.03-.341,1.568-.55,1.087-.451,1.652-.714,1.131-.57,1.7-.9q.434-.245.865-.52c.292-.177.577-.372.867-.567s.579-.415.871-.63.546-.439.825-.661a12.338,12.338,0,0,0,1.638-1.626,10.033,10.033,0,0,0,.7-.969l.162-.269.138-.245c.105-.2.19-.364.277-.553a8.639,8.639,0,0,0,.442-1.156,6,6,0,0,0,.156-.626c.041-.209.072-.422.092-.636a9.524,9.524,0,0,0-.137-2.474,21,21,0,0,0-1.32-4.5,19.7,19.7,0,0,0-1.041-2.043c-.376-.651-.778-1.275-1.2-1.87A31.341,31.341,0,0,0,78.679,24.3c-.876-.973-1.755-1.843-2.582-2.627S74.488,20.2,73.783,19.6s-1.339-1.092-1.861-1.5-.948-.708-1.235-.915l-.444-.313,1.444,1.49,1.628,1.727c.621.672,1.308,1.441,2.048,2.284s1.509,1.782,2.309,2.782,1.606,2.077,2.348,3.223a24.694,24.694,0,0,1,1.952,3.7,19.274,19.274,0,0,1,1.149,4.124,7.936,7.936,0,0,1,.134,2.016c-.014.159-.036.316-.065.476" transform="translate(-27.361 -6.684)" fill="#e8e5e2"/>
  </g>
</svg>
